<svg width="26" height="27" viewBox="0 0 26 27" fill="none" xmlns="http://www.w3.org/2000/svg">
<path d="M13 0.0283203C10.4288 0.0283203 7.91543 0.791502 5.77759 2.22135C3.63975 3.65121 1.97351 5.68351 0.989572 8.06127C0.0056327 10.439 -0.251811 13.0555 0.249797 15.5797C0.751405 18.1039 1.98953 20.4225 3.80762 22.2424C5.6257 24.0622 7.94208 25.3016 10.4638 25.8037C12.9856 26.3058 15.5995 26.0481 17.9749 25.0632C20.3503 24.0783 22.3807 22.4104 23.8091 20.2705C25.2376 18.1306 26 15.6147 26 13.041C25.9964 9.59095 24.6256 6.28324 22.1884 3.84367C19.7512 1.40411 16.4467 0.0319636 13 0.0283203ZM14 24.0055V16.0439H17C17.2652 16.0439 17.5196 15.9385 17.7071 15.7508C17.8946 15.563 18 15.3084 18 15.043C18 14.7775 17.8946 14.5229 17.7071 14.3352C17.5196 14.1475 17.2652 14.042 17 14.042H14V11.0391C14 10.5081 14.2107 9.99891 14.5858 9.62347C14.9609 9.24803 15.4696 9.03711 16 9.03711H18C18.2652 9.03711 18.5196 8.93165 18.7071 8.74393C18.8946 8.55621 19 8.30161 19 8.03613C19 7.77066 18.8946 7.51606 18.7071 7.32834C18.5196 7.14062 18.2652 7.03516 18 7.03516H16C14.9391 7.03516 13.9217 7.457 13.1716 8.20787C12.4214 8.95875 12 9.97716 12 11.0391V14.042H9.00001C8.73479 14.042 8.48044 14.1475 8.2929 14.3352C8.10536 14.5229 8.00001 14.7775 8.00001 15.043C8.00001 15.3084 8.10536 15.563 8.2929 15.7508C8.48044 15.9385 8.73479 16.0439 9.00001 16.0439H12V24.0055C9.181 23.7479 6.56971 22.4124 4.7093 20.2768C2.8489 18.1412 1.8826 15.3699 2.0114 12.5393C2.1402 9.70875 3.35419 7.03685 5.40085 5.07938C7.44751 3.12191 10.1693 2.02957 13 2.02957C15.8307 2.02957 18.5525 3.12191 20.5992 5.07938C22.6458 7.03685 23.8598 9.70875 23.9886 12.5393C24.1174 15.3699 23.1511 18.1412 21.2907 20.2768C19.4303 22.4124 16.819 23.7479 14 24.0055Z" fill="#034C31"/>
</svg>
