<svg width="72" height="100" viewBox="0 0 72 100" fill="none" xmlns="http://www.w3.org/2000/svg">
<path fill-rule="evenodd" clip-rule="evenodd" d="M18 7.69231C18 3.44397 21.4537 0 25.7143 0H46.2857C50.5463 0 54 3.44397 54 7.69231H61.7143C67.3948 7.69231 72 12.2843 72 17.9487V89.7436C72 95.408 67.3948 100 61.7143 100H10.2857C4.60517 100 0 95.408 0 89.7436V17.9487C0 12.2843 4.60517 7.69231 10.2857 7.69231H18ZM25.7143 5.12821C24.2941 5.12821 23.1429 6.27621 23.1429 7.69231V12.8205C23.1429 14.2366 24.2941 15.3846 25.7143 15.3846H46.2857C47.7059 15.3846 48.8571 14.2366 48.8571 12.8205V7.69231C48.8571 6.27621 47.7059 5.12821 46.2857 5.12821H25.7143ZM15.4286 41.0256C14.0084 41.0256 12.8571 42.1736 12.8571 43.5897C12.8571 45.0059 14.0084 46.1538 15.4286 46.1538H33.4286C34.8488 46.1538 36 45.0059 36 43.5897C36 42.1736 34.8488 41.0256 33.4286 41.0256H15.4286ZM12.8571 30.7692C12.8571 29.3531 14.0084 28.2051 15.4286 28.2051H55.2857C56.7059 28.2051 57.8571 29.3531 57.8571 30.7692C57.8571 32.1854 56.7059 33.3333 55.2857 33.3333H15.4286C14.0084 33.3333 12.8571 32.1854 12.8571 30.7692ZM41.2074 50.3615C41.2074 48.0474 43.1409 46.1538 45.504 46.1538C47.8674 46.1538 49.8009 48.0474 49.8009 50.3615C49.8009 52.6759 47.8674 54.5695 45.504 54.5695C43.1409 54.5695 41.2074 52.6759 41.2074 50.3615ZM40.0881 60.6577H27.8627C26.6811 60.6577 25.7143 59.711 25.7143 58.5538C25.7143 57.3967 26.6811 56.45 27.8627 56.45H62.1373C63.3189 56.45 64.2857 57.3967 64.2857 58.5538C64.2857 59.711 63.3189 60.6577 62.1373 60.6577H49.9119L57.3295 85.9044C57.3295 87.0615 56.3626 88.0082 55.1811 88.0082C52.5903 88.0082 50.6582 81.8315 49.4432 77.9469C49.0978 76.8431 48.8103 75.9244 48.5823 75.3849H41.4177C41.1897 75.9244 40.9022 76.8431 40.5568 77.9469C39.3418 81.8315 37.4097 88.0082 34.8189 88.0082C33.6374 88.0082 32.6705 87.0615 32.6705 85.9044L40.0881 60.6577ZM18 76.9231V71.7949H23.1429V76.9231H18ZM12.8571 69.2308C12.8571 67.8146 14.0084 66.6667 15.4286 66.6667H25.7143C27.1345 66.6667 28.2857 67.8146 28.2857 69.2308V79.4872C28.2857 80.9033 27.1345 82.0513 25.7143 82.0513H15.4286C14.0084 82.0513 12.8571 80.9033 12.8571 79.4872V69.2308Z" fill="#FEFEFE"/>
</svg>
