<svg width="25" height="25" viewBox="0 0 25 25" fill="none" xmlns="http://www.w3.org/2000/svg">
<path d="M12.5 6.25C11.7274 6.25 10.9722 6.4791 10.3298 6.90832C9.68742 7.33755 9.18675 7.94762 8.8911 8.66139C8.59544 9.37517 8.51808 10.1606 8.66881 10.9183C8.81953 11.6761 9.19157 12.3721 9.73786 12.9184C10.2842 13.4647 10.9802 13.8367 11.7379 13.9874C12.4957 14.1382 13.2811 14.0608 13.9949 13.7652C14.7086 13.4695 15.3187 12.9688 15.7479 12.3264C16.1772 11.6841 16.4062 10.9288 16.4062 10.1562C16.4062 9.12025 15.9947 8.12668 15.2621 7.39411C14.5296 6.66155 13.536 6.25 12.5 6.25ZM12.5 12.5C12.0365 12.5 11.5833 12.3625 11.1979 12.105C10.8125 11.8475 10.5121 11.4814 10.3347 11.0532C10.1573 10.6249 10.1109 10.1537 10.2013 9.69901C10.2917 9.24436 10.5149 8.82675 10.8427 8.49897C11.1705 8.17119 11.5881 7.94797 12.0428 7.85753C12.4974 7.7671 12.9686 7.81351 13.3969 7.99091C13.8252 8.1683 14.1912 8.4687 14.4488 8.85413C14.7063 9.23956 14.8438 9.6927 14.8438 10.1562C14.8438 10.7779 14.5968 11.374 14.1573 11.8135C13.7177 12.2531 13.1216 12.5 12.5 12.5ZM12.5 1.5625C10.2216 1.56508 8.03724 2.47133 6.42616 4.08241C4.81507 5.69349 3.90883 7.87784 3.90625 10.1562C3.90625 13.2227 5.32324 16.4727 8.00781 19.5557C9.21408 20.9488 10.5717 22.2033 12.0557 23.2959C12.187 23.3879 12.3435 23.4373 12.5039 23.4373C12.6643 23.4373 12.8208 23.3879 12.9521 23.2959C14.4333 22.2028 15.7884 20.9484 16.9922 19.5557C19.6729 16.4727 21.0938 13.2227 21.0938 10.1562C21.0912 7.87784 20.1849 5.69349 18.5738 4.08241C16.9628 2.47133 14.7784 1.56508 12.5 1.5625ZM12.5 21.6797C10.8857 20.4102 5.46875 15.7471 5.46875 10.1562C5.46875 8.29145 6.20954 6.50302 7.52816 5.18441C8.84677 3.86579 10.6352 3.125 12.5 3.125C14.3648 3.125 16.1532 3.86579 17.4718 5.18441C18.7905 6.50302 19.5312 8.29145 19.5312 10.1562C19.5312 15.7451 14.1143 20.4102 12.5 21.6797Z" fill="#23682F"/>
</svg>
