<svg width="121" height="85" viewBox="0 0 121 85" fill="none" xmlns="http://www.w3.org/2000/svg">
<path d="M18.0491 36.0981C24.6859 36.0981 30.0818 30.7022 30.0818 24.0654C30.0818 17.4286 24.6859 12.0327 18.0491 12.0327C11.4123 12.0327 6.01636 17.4286 6.01636 24.0654C6.01636 30.7022 11.4123 36.0981 18.0491 36.0981ZM102.278 36.0981C108.915 36.0981 114.311 30.7022 114.311 24.0654C114.311 17.4286 108.915 12.0327 102.278 12.0327C95.6413 12.0327 90.2453 17.4286 90.2453 24.0654C90.2453 30.7022 95.6413 36.0981 102.278 36.0981ZM108.294 42.1145H96.2617C92.9527 42.1145 89.9633 43.4494 87.7824 45.6115C95.3592 49.7665 100.736 57.2682 101.902 66.1799H114.311C117.639 66.1799 120.327 63.4914 120.327 60.1636V54.1472C120.327 47.5104 114.931 42.1145 108.294 42.1145ZM60.1636 42.1145C71.8014 42.1145 81.2208 32.6951 81.2208 21.0572C81.2208 9.41936 71.8014 0 60.1636 0C48.5257 0 39.1063 9.41936 39.1063 21.0572C39.1063 32.6951 48.5257 42.1145 60.1636 42.1145ZM74.6028 48.1308H73.0423C69.1317 50.011 64.7886 51.139 60.1636 51.139C55.5385 51.139 51.2142 50.011 47.2848 48.1308H45.7243C33.7668 48.1308 24.0654 57.8322 24.0654 69.7897V75.2045C24.0654 80.1867 28.1077 84.229 33.09 84.229H87.2372C92.2195 84.229 96.2617 80.1867 96.2617 75.2045V69.7897C96.2617 57.8322 86.5603 48.1308 74.6028 48.1308ZM32.5447 45.6115C30.3638 43.4494 27.3744 42.1145 24.0654 42.1145H12.0327C5.39592 42.1145 0 47.5104 0 54.1472V60.1636C0 63.4914 2.68856 66.1799 6.01636 66.1799H18.4063C19.5908 57.2682 24.9679 49.7665 32.5447 45.6115Z" fill="#FEFEFE"/>
</svg>
