<svg width="25" height="25" viewBox="0 0 25 25" fill="none" xmlns="http://www.w3.org/2000/svg">
<path d="M14.8701 3.70415C14.8966 3.605 14.9424 3.51205 15.0049 3.4306C15.0673 3.34916 15.1452 3.28082 15.2341 3.22949C15.323 3.17816 15.4211 3.14484 15.5229 3.13145C15.6246 3.11805 15.728 3.12484 15.8271 3.15141C17.2754 3.52929 18.5968 4.28642 19.6552 5.34481C20.7136 6.4032 21.4707 7.72459 21.8486 9.1729C21.8752 9.27203 21.882 9.37543 21.8686 9.47719C21.8552 9.57894 21.8219 9.67706 21.7705 9.76594C21.7192 9.85481 21.6509 9.9327 21.5694 9.99516C21.488 10.0576 21.395 10.1034 21.2959 10.1299C21.2299 10.1473 21.162 10.1561 21.0937 10.1563C20.9216 10.1563 20.7542 10.0994 20.6177 9.99452C20.4812 9.88962 20.3832 9.74257 20.3389 9.57622C20.0307 8.39392 19.4128 7.31519 18.5488 6.45124C17.6848 5.58729 16.6061 4.96937 15.4238 4.66118C15.3246 4.63476 15.2315 4.58904 15.15 4.52663C15.0684 4.46422 15 4.38635 14.9486 4.29746C14.8971 4.20857 14.8637 4.11042 14.8503 4.00861C14.8368 3.90681 14.8435 3.80335 14.8701 3.70415ZM14.6426 7.78618C15.9893 8.14555 16.8545 9.01079 17.2139 10.3575C17.2582 10.5238 17.3562 10.6709 17.4927 10.7758C17.6292 10.8807 17.7966 10.9375 17.9687 10.9375C18.037 10.9374 18.1049 10.9285 18.1709 10.9112C18.27 10.8847 18.363 10.8389 18.4444 10.7764C18.5259 10.714 18.5942 10.6361 18.6455 10.5472C18.6969 10.4583 18.7302 10.3602 18.7436 10.2584C18.757 10.1567 18.7502 10.0533 18.7236 9.95415C18.2236 8.08305 16.917 6.77641 15.0459 6.27641C14.9468 6.24993 14.8434 6.24323 14.7417 6.2567C14.6399 6.27017 14.5419 6.30355 14.453 6.35492C14.3642 6.40629 14.2864 6.47465 14.224 6.55611C14.1616 6.63756 14.1158 6.7305 14.0893 6.82964C14.0629 6.92877 14.0562 7.03215 14.0696 7.13387C14.0831 7.23559 14.1165 7.33366 14.1679 7.42248C14.2192 7.51131 14.2876 7.58914 14.369 7.65155C14.4505 7.71395 14.5434 7.7597 14.6426 7.78618ZM22.6445 17.0977C22.4704 18.421 21.8205 19.6356 20.8163 20.5148C19.8121 21.3939 18.5222 21.8774 17.1875 21.875C9.43359 21.875 3.12499 15.5665 3.12499 7.81255C3.1226 6.47787 3.60613 5.18796 4.48528 4.18373C5.36443 3.17951 6.57907 2.52964 7.90234 2.35552C8.23696 2.31466 8.57582 2.38311 8.86834 2.55067C9.16086 2.71823 9.39134 2.97589 9.52538 3.2852L11.5879 7.88969V7.90141C11.6905 8.13818 11.7329 8.39669 11.7113 8.65383C11.6896 8.91098 11.6046 9.15876 11.4639 9.37505C11.4463 9.40141 11.4277 9.42583 11.4082 9.45024L9.37499 11.8604C10.1064 13.3467 11.6611 14.8877 13.167 15.6211L15.5439 13.5987C15.5673 13.5791 15.5917 13.5608 15.6172 13.544C15.8333 13.3999 16.0819 13.3119 16.3406 13.288C16.5993 13.2641 16.8598 13.3051 17.0986 13.4073L17.1113 13.4131L21.7119 15.4747C22.0218 15.6082 22.2801 15.8385 22.4482 16.1311C22.6163 16.4236 22.6852 16.7627 22.6445 17.0977ZM21.0937 16.9024C21.0937 16.9024 21.0869 16.9024 21.083 16.9024L16.4932 14.8467L14.1152 16.8692C14.0922 16.8887 14.068 16.907 14.043 16.9239C13.8181 17.0739 13.5582 17.163 13.2886 17.1825C13.019 17.202 12.749 17.1513 12.5049 17.0352C10.6758 16.1514 8.85253 14.3418 7.96777 12.5323C7.85061 12.2899 7.79804 12.0215 7.81514 11.7528C7.83225 11.4842 7.91847 11.2246 8.06542 10.9991C8.08199 10.9726 8.1006 10.9474 8.12109 10.9239L10.1562 8.51079L8.10546 3.92095C8.10508 3.91705 8.10508 3.91312 8.10546 3.90923C7.15845 4.03276 6.28894 4.49728 5.65977 5.21578C5.03061 5.93429 4.68493 6.85751 4.68749 7.81255C4.69111 11.1266 6.00923 14.304 8.35266 16.6474C10.6961 18.9908 13.8734 20.3089 17.1875 20.3125C18.1419 20.3158 19.0649 19.9714 19.7838 19.3436C20.5028 18.7158 20.9684 17.8476 21.0937 16.9014V16.9024Z" fill="#23682F"/>
</svg>
