<svg width="25" height="18" viewBox="0 0 25 18" fill="none" xmlns="http://www.w3.org/2000/svg">
<path d="M23.2143 0H1.78571C1.31211 0 0.85791 0.188137 0.523023 0.523024C0.188137 0.85791 0 1.31211 0 1.78571V16.0714C0 16.545 0.188137 16.9992 0.523023 17.3341C0.85791 17.669 1.31211 17.8571 1.78571 17.8571H23.2143C23.6879 17.8571 24.1421 17.669 24.477 17.3341C24.8119 16.9992 25 16.545 25 16.0714V1.78571C25 1.31211 24.8119 0.85791 24.477 0.523024C24.1421 0.188137 23.6879 0 23.2143 0ZM21.25 1.78571L12.5 7.83929L3.75 1.78571H21.25ZM1.78571 16.0714V2.59821L11.9911 9.66071C12.1405 9.7644 12.3181 9.81996 12.5 9.81996C12.6819 9.81996 12.8595 9.7644 13.0089 9.66071L23.2143 2.59821V16.0714H1.78571Z" fill="#23682F"/>
</svg>
