<svg width="93" height="93" viewBox="0 0 93 93" fill="none" xmlns="http://www.w3.org/2000/svg">
<path d="M12.914 61.987C12.914 60.5605 14.0703 59.4042 15.4968 59.4042H51.6559C53.0823 59.4042 54.2386 60.5605 54.2386 61.987C54.2386 63.4134 53.0823 64.5698 51.6559 64.5698H15.4968C14.0703 64.5698 12.914 63.4134 12.914 61.987Z" fill="#FEFEFE"/>
<path d="M15.4968 72.3182C14.0703 72.3182 12.914 73.4746 12.914 74.901C12.914 76.3275 14.0703 77.4838 15.4968 77.4838H51.6559C53.0823 77.4838 54.2386 76.3275 54.2386 74.901C54.2386 73.4746 53.0823 72.3182 51.6559 72.3182H15.4968Z" fill="#FEFEFE"/>
<path d="M20.6623 38.7419V30.9935H25.8279V38.7419H33.5763V43.9075H25.8279V51.6559H20.6623V43.9075H12.914V38.7419H20.6623Z" fill="#FEFEFE"/>
<path fill-rule="evenodd" clip-rule="evenodd" d="M23.2451 0C18.9657 0 15.4968 3.46908 15.4968 7.74838H7.74838C3.46908 7.74838 0 11.2173 0 15.4968V85.2321C0 89.5116 3.46908 92.9805 7.74838 92.9805H59.4042C63.6837 92.9805 67.1526 89.5116 67.1526 85.2321V15.4968C67.1526 11.2173 63.6837 7.74838 59.4042 7.74838H51.6558C51.6558 3.46908 48.1869 0 43.9075 0H23.2451ZM43.9075 15.4968C45.334 15.4968 46.4903 14.3404 46.4903 12.914V7.74838C46.4903 6.32195 45.334 5.16558 43.9075 5.16558H23.2451C21.8187 5.16558 20.6623 6.32195 20.6623 7.74838V12.914C20.6623 14.3404 21.8187 15.4968 23.2451 15.4968H43.9075ZM15.4968 12.914C15.4968 17.1934 18.9657 20.6623 23.2451 20.6623H43.9075C48.1869 20.6623 51.6558 17.1934 51.6558 12.914H59.4042C60.8307 12.914 61.987 14.0703 61.987 15.4968V85.2321C61.987 86.6586 60.8307 87.8149 59.4042 87.8149H7.74838C6.32195 87.8149 5.16559 86.6586 5.16559 85.2321V15.4968C5.16559 14.0703 6.32195 12.914 7.74838 12.914H15.4968Z" fill="#FEFEFE"/>
<path fill-rule="evenodd" clip-rule="evenodd" d="M77.4838 28.4107C77.4838 24.1313 80.9527 20.6624 85.2321 20.6624C89.5116 20.6624 92.9805 24.1313 92.9805 28.4107V80.8486L85.2321 92.4712L77.4838 80.8486V28.4107ZM85.2321 25.8279C83.8057 25.8279 82.6493 26.9843 82.6493 28.4107V33.5763H87.8149V28.4107C87.8149 26.9843 86.6586 25.8279 85.2321 25.8279ZM85.2321 83.1587L87.8149 79.2845V38.7419H82.6493V79.2845L85.2321 83.1587Z" fill="#FEFEFE"/>
</svg>
