<svg width="79" height="90" viewBox="0 0 79 90" fill="none" xmlns="http://www.w3.org/2000/svg">
<path d="M39.375 45C51.8027 45 61.875 34.9277 61.875 22.5C61.875 10.0723 51.8027 0 39.375 0C26.9473 0 16.875 10.0723 16.875 22.5C16.875 34.9277 26.9473 45 39.375 45ZM18.2813 74.5312C18.2813 76.8691 20.1621 78.75 22.5 78.75C24.8379 78.75 26.7188 76.8691 26.7188 74.5312C26.7188 72.1934 24.8379 70.3125 22.5 70.3125C20.1621 70.3125 18.2813 72.1934 18.2813 74.5312ZM56.25 50.7305V59.3438C62.666 60.6445 67.5 66.3398 67.5 73.125V80.4551C67.5 81.791 66.5508 82.9512 65.2324 83.2148L59.5723 84.3398C58.8164 84.498 58.0781 84.0059 57.9199 83.2324L57.375 80.4727C57.2168 79.7168 57.709 78.9609 58.4824 78.8203L61.875 78.1348V73.125C61.875 62.0859 45 61.6816 45 73.459V78.1523L48.3926 78.8379C49.1484 78.9961 49.6406 79.7344 49.5 80.4902L48.9551 83.25C48.7969 84.0059 48.0586 84.498 47.3027 84.3574L41.8184 83.6191C40.4297 83.4258 39.3926 82.248 39.3926 80.8242V73.125C39.3926 66.3398 44.2266 60.6621 50.6426 59.3438V51.3984C50.2559 51.5215 49.8691 51.5918 49.4824 51.7324C46.3184 52.8398 42.9258 53.4551 39.3926 53.4551C35.8594 53.4551 32.4668 52.8398 29.3027 51.7324C28.002 51.2754 26.6836 50.9941 25.3301 50.8184V65.1621C29.3906 66.375 32.3613 70.1016 32.3613 74.5488C32.3613 79.9805 27.9492 84.3926 22.5176 84.3926C17.0859 84.3926 12.6738 79.9805 12.6738 74.5488C12.6738 70.1016 15.6445 66.375 19.7051 65.1621V51.0293C8.52539 52.9102 0 62.543 0 74.25V82.125C0 86.4668 3.5332 90 7.875 90H70.875C75.2168 90 78.75 86.4668 78.75 82.125V74.25C78.75 61.5938 68.7656 51.3457 56.25 50.7305Z" fill="#FEFEFE"/>
</svg>
